#Comment line ignore any data following # character 
#Hierarchical Translation and Rotation (.htr) file 
[Header]	
#Header keywords are followed by a single value 
FileType HTR		#Single word string
DataType HTRS		#Translation followed by rotation and scale data
FileVersion 1		#integer
NumSegments 64		#integer
NumFrames 3		#integer
DataFrameRate 30		#integer, data frame rate in this file
EulerRotationOrder ZYX
CalibrationUnits mm
RotationUnits Degrees
GlobalAxisofGravity Y
BoneLengthAxis Y
ScaleFactor 1.00
[SegmentNames&Hierarchy]
#CHILD	PARENT
Pinger_Root GLOBAL
Pelvis Pinger_Root
L_Hip Pelvis
R_Hip Pelvis
Rear_Leg01 Pelvis
Spine1 Pelvis
L_Leg01 L_Hip
L_Leg02 L_Leg01
L_Leg03 L_Leg02
L_Foot L_Leg03
L_Toe1_01 L_Foot
L_Toe2_01 L_Foot
L_Toe3_01 L_Foot
planeAlignerLeft L_Foot
L_Toe1_02 L_Toe1_01
L_Toe1_03 L_Toe1_02
L_Toe2_02 L_Toe2_01
L_Toe2_03 L_Toe2_02
L_Toe3_02 L_Toe3_01
L_Toe3_03 L_Toe3_02
planeLockWeightLeft planeAlignerLeft
R_Leg01 R_Hip
R_Leg02 R_Leg01
R_Leg03 R_Leg02
R_Foot R_Leg03
planeAlignerRight R_Foot
R_Toe1_01 R_Foot
R_Toe2_01 R_Foot
R_Toe3_01 R_Foot
planeLockWeightRight planeAlignerRight
R_Toe1_02 R_Toe1_01
R_Toe1_03 R_Toe1_02
R_Toe2_02 R_Toe2_01
R_Toe2_03 R_Toe2_02
R_Toe3_02 R_Toe3_01
R_Toe3_03 R_Toe3_02
Rear_Leg02 Rear_Leg01
Rear_Leg03 Rear_Leg02
Rear_Leg04 Rear_Leg03
Rear_Foot Rear_Leg04
planeAlignerCenter Rear_Foot
Rear_Toe1_01 Rear_Foot
Rear_Toe2_01 Rear_Foot
Rear_Toe3_01 Rear_Foot
planeLockWeightCenter planeAlignerCenter
Rear_Toe1_02 Rear_Toe1_01
Rear_Toe1_03 Rear_Toe1_02
Rear_Toe2_02 Rear_Toe2_01
Rear_Toe2_03 Rear_Toe2_02
Rear_Toe3_02 Rear_Toe3_01
Rear_Toe3_03 Rear_Toe3_02
Back_Bone Spine1
Head Spine1
Motor_Bone Back_Bone
Ping_Mechanism Back_Bone
BN_LookIK Head
bottomMouth Head
L_Mouth01 Head
L_mouthFront Head
mouthGun Head
R_Mouth01 Head
R_mouthFront Head
TopMouth Head
weapon_bone Head
[BasePosition]
#SegmentName Tx, Ty, Tz, Rx, Ry, Rz, BoneLength
Pinger_Root 0.000000 0.000000 0.000000 -90.000000 0.000000 0.000000 10.000000 
Pelvis 0.000000 0.000000 0.000000 0.000000 0.000000 0.000000 10.000000 
L_Hip 0.000000 0.000000 0.000000 0.000000 0.000000 0.000000 10.000000 
R_Hip 0.000000 0.000000 0.000000 0.000000 0.000000 0.000000 10.000000 
Rear_Leg01 0.000000 0.000000 0.000000 0.000000 0.000000 0.000000 10.000000 
Spine1 0.000000 0.000000 0.000000 0.000000 0.000000 0.000000 10.000000 
L_Leg01 0.000000 0.000000 0.000000 0.000000 0.000000 0.000000 10.000000 
L_Leg02 0.000000 0.000000 0.000000 0.000000 0.000000 0.000000 10.000000 
L_Leg03 0.000000 0.000000 0.000000 0.000000 0.000000 0.000000 10.000000 
L_Foot 0.000000 0.000000 0.000000 0.000000 0.000000 0.000000 10.000000 
L_Toe1_01 0.000000 0.000000 0.000000 0.000000 0.000000 0.000000 10.000000 
L_Toe2_01 0.000000 0.000000 0.000000 0.000000 0.000000 0.000000 10.000000 
L_Toe3_01 0.000000 0.000000 0.000000 0.000000 0.000000 0.000000 10.000000 
planeAlignerLeft 0.000000 0.000000 0.000000 0.000000 0.000000 0.000000 10.000000 
L_Toe1_02 0.000000 0.000000 0.000000 0.000000 0.000000 0.000000 10.000000 
L_Toe1_03 0.000000 0.000000 0.000000 0.000000 0.000000 0.000000 10.000000 
L_Toe2_02 0.000000 0.000000 0.000000 0.000000 0.000000 0.000000 10.000000 
L_Toe2_03 0.000000 0.000000 0.000000 0.000000 0.000000 0.000000 10.000000 
L_Toe3_02 0.000000 0.000000 0.000000 0.000000 0.000000 0.000000 10.000000 
L_Toe3_03 0.000000 0.000000 0.000000 0.000000 0.000000 0.000000 10.000000 
planeLockWeightLeft 0.000000 0.000000 0.000000 0.000000 0.000000 0.000000 10.000000 
R_Leg01 0.000000 0.000000 0.000000 0.000000 0.000000 0.000000 10.000000 
R_Leg02 0.000000 0.000000 0.000000 0.000000 0.000000 0.000000 10.000000 
R_Leg03 0.000000 0.000000 0.000000 0.000000 0.000000 0.000000 10.000000 
R_Foot 0.000000 0.000000 0.000000 0.000000 0.000000 0.000000 10.000000 
planeAlignerRight 0.000000 0.000000 0.000000 0.000000 0.000000 0.000000 10.000000 
R_Toe1_01 0.000000 0.000000 0.000000 0.000000 0.000000 0.000000 10.000000 
R_Toe2_01 0.000000 0.000000 0.000000 0.000000 0.000000 0.000000 10.000000 
R_Toe3_01 0.000000 0.000000 0.000000 0.000000 0.000000 0.000000 10.000000 
planeLockWeightRight 0.000000 0.000000 0.000000 0.000000 0.000000 0.000000 10.000000 
R_Toe1_02 0.000000 0.000000 0.000000 0.000000 0.000000 0.000000 10.000000 
R_Toe1_03 0.000000 0.000000 0.000000 0.000000 0.000000 0.000000 10.000000 
R_Toe2_02 0.000000 0.000000 0.000000 0.000000 0.000000 0.000000 10.000000 
R_Toe2_03 0.000000 0.000000 0.000000 0.000000 0.000000 0.000000 10.000000 
R_Toe3_02 0.000000 0.000000 0.000000 0.000000 0.000000 0.000000 10.000000 
R_Toe3_03 0.000000 0.000000 0.000000 0.000000 0.000000 0.000000 10.000000 
Rear_Leg02 0.000000 0.000000 0.000000 0.000000 0.000000 0.000000 10.000000 
Rear_Leg03 0.000000 0.000000 0.000000 0.000000 0.000000 0.000000 10.000000 
Rear_Leg04 0.000000 0.000000 0.000000 0.000000 0.000000 0.000000 10.000000 
Rear_Foot 0.000000 0.000000 0.000000 0.000000 0.000000 0.000000 10.000000 
planeAlignerCenter 0.000000 0.000000 0.000000 0.000000 0.000000 0.000000 10.000000 
Rear_Toe1_01 0.000000 0.000000 0.000000 0.000000 0.000000 0.000000 10.000000 
Rear_Toe2_01 0.000000 0.000000 0.000000 0.000000 0.000000 0.000000 10.000000 
Rear_Toe3_01 0.000000 0.000000 0.000000 0.000000 0.000000 0.000000 10.000000 
planeLockWeightCenter 0.000000 0.000000 0.000000 0.000000 0.000000 0.000000 10.000000 
Rear_Toe1_02 0.000000 0.000000 0.000000 0.000000 0.000000 0.000000 10.000000 
Rear_Toe1_03 0.000000 0.000000 0.000000 0.000000 0.000000 0.000000 10.000000 
Rear_Toe2_02 0.000000 0.000000 0.000000 0.000000 0.000000 0.000000 10.000000 
Rear_Toe2_03 0.000000 0.000000 0.000000 0.000000 0.000000 0.000000 10.000000 
Rear_Toe3_02 0.000000 0.000000 0.000000 0.000000 0.000000 0.000000 10.000000 
Rear_Toe3_03 0.000000 0.000000 0.000000 0.000000 0.000000 0.000000 10.000000 
Back_Bone 0.000000 0.000000 0.000000 0.000000 0.000000 0.000000 10.000000 
Head 0.000000 0.000000 0.000000 0.000000 0.000000 0.000000 10.000000 
Motor_Bone 0.000000 0.000000 0.000000 0.000000 0.000000 0.000000 10.000000 
Ping_Mechanism 0.000000 0.000000 0.000000 0.000000 0.000000 0.000000 10.000000 
BN_LookIK 0.000000 0.000000 0.000000 0.000000 0.000000 0.000000 10.000000 
bottomMouth 0.000000 0.000000 0.000000 0.000000 0.000000 0.000000 10.000000 
L_Mouth01 0.000000 0.000000 0.000000 0.000000 0.000000 0.000000 10.000000 
L_mouthFront 0.000000 0.000000 0.000000 0.000000 0.000000 0.000000 10.000000 
mouthGun 0.000000 0.000000 0.000000 0.000000 0.000000 0.000000 10.000000 
R_Mouth01 0.000000 0.000000 0.000000 0.000000 0.000000 0.000000 10.000000 
R_mouthFront 0.000000 0.000000 0.000000 0.000000 0.000000 0.000000 10.000000 
TopMouth 0.000000 0.000000 0.000000 0.000000 0.000000 0.000000 10.000000 
weapon_bone 0.000000 0.000000 0.000000 0.000000 0.000000 0.000000 10.000000 
#Beginning of Data. Separated by tabs
#Fr	Tx	Ty	Tz	Rx	Ry	Rz	SF
[Pinger_Root]
14 0.000000 0.000000 0.000000 -0.000075 -0.000000 -0.000020 0.000000
15 0.000000 0.000000 0.000000 -0.000075 -0.000000 -0.000020 0.000000
16 0.000000 0.000000 0.000000 -0.000075 -0.000000 -0.000020 0.000000
[Pelvis]
14 -76.162163 528.932800 4798.945801 -85.336685 -84.586334 118.885826 4828.607910
15 -136.231964 480.112671 4840.807129 -76.791718 -83.169212 111.477791 4866.464844
16 -209.171112 430.583618 4882.269531 -81.149979 -81.884773 116.866425 4905.681152
[L_Hip]
14 5.766392 125.831482 872.656799 164.247208 -71.686340 107.383766 881.701050
15 5.766392 125.831482 872.656799 166.269760 -74.177727 104.649368 881.701050
16 5.766392 125.831482 872.656799 168.550171 -76.217369 101.868660 881.701050
[R_Hip]
14 5.765438 125.836372 -872.654907 26.855448 73.682281 114.491699 881.699829
15 5.765438 125.836372 -872.654907 23.390007 75.681160 111.306618 881.699829
16 5.765438 125.836372 -872.654907 18.872986 77.617081 107.068718 881.699829
[Rear_Leg01]
14 -192.298416 -925.602966 -0.001907 -163.568039 -28.574202 -139.403503 945.367432
15 -192.298416 -925.602966 -0.001907 -162.700226 -28.739721 -138.532028 945.367432
16 -192.298416 -925.602966 -0.001907 -162.907806 -29.787655 -137.475220 945.367432
[Spine1]
14 290.604584 5.007505 0.000477 -23.357441 11.450954 19.023487 290.647736
15 290.604584 5.007505 0.000477 -24.054892 10.638295 17.899448 290.647736
16 290.604584 5.007505 0.000477 -24.182796 11.152526 16.752548 290.647736
[L_Leg01]
14 761.932007 -0.002384 -0.069261 52.979622 17.455105 -65.466759 761.932068
15 761.932007 -0.002384 -0.069261 55.860439 13.075370 -67.091331 761.932068
16 761.932007 -0.002384 -0.069261 58.372021 9.320613 -67.529961 761.932068
[L_Leg02]
14 1441.140503 -0.000954 -0.000715 -1.464110 0.650272 -70.584129 1441.140503
15 1441.140503 -0.000954 -0.000715 -1.455278 0.664806 -71.745796 1441.140503
16 1441.140503 -0.000954 -0.000715 -1.464269 0.651607 -74.384628 1441.140503
[L_Leg03]
14 1686.963989 -0.000715 -0.000954 0.072229 -0.014301 90.497772 1686.963989
15 1686.963989 -0.000715 -0.000954 0.072295 -0.013963 89.962746 1686.963989
16 1686.963989 -0.000715 -0.000954 0.068646 -0.014714 91.210907 1686.963989
[L_Foot]
14 3041.570068 -30.715107 11.297464 -31.241388 15.263265 69.210091 3041.746094
15 3041.570068 -30.715107 11.297464 -29.702789 15.412313 69.777092 3041.746094
16 3041.570068 -30.715107 11.297464 -28.161421 15.546638 70.348526 3041.746094
[L_Toe1_01]
14 -188.216690 -224.732346 -21.137953 88.640816 -8.358854 -173.970551 293.899567
15 -188.216690 -224.732346 -21.137953 89.136589 -7.958153 -173.537598 293.899567
16 -188.216690 -224.732346 -21.137953 89.435593 -7.180322 -172.406738 293.899567
[L_Toe2_01]
14 200.746536 -219.926590 148.838394 -79.338593 -20.100151 -37.671638 332.896027
15 200.746536 -219.926590 148.838394 -79.059021 -19.762852 -37.977478 332.896027
16 200.746536 -219.926590 148.838394 -78.745781 -18.977701 -38.808323 332.896027
[L_Toe3_01]
14 188.832520 -219.859131 -191.078659 -96.643295 12.332712 -35.083481 347.140900
15 188.832520 -219.859131 -191.078659 -97.948250 12.370359 -35.579315 347.140900
16 188.832520 -219.859131 -191.078659 -99.467552 12.739169 -36.913525 347.140900
[planeAlignerLeft]
14 12.506994 -499.980560 104.868706 0.000000 -89.960434 -90.001617 511.013153
15 11.141587 -505.554016 100.569466 0.000000 -89.980217 -90.001633 515.580444
16 7.614829 -520.014709 89.480301 0.000000 -90.000000 -90.001633 527.712097
[L_Toe1_02]
14 413.761139 0.000477 0.000000 0.001431 -20.202095 0.001431 413.761139
15 413.761139 0.000477 0.000000 0.001429 -20.466837 0.001429 413.761139
16 413.761139 0.000477 0.000000 0.001426 -20.731577 0.001426 413.761139
[L_Toe1_03]
14 464.317322 0.000358 -0.000089 0.000000 89.750557 0.000005 464.317322
15 464.317322 0.000358 -0.000089 0.213448 89.369133 0.213448 464.317322
16 464.317322 0.000358 -0.000089 0.080924 88.337517 0.080924 464.317322
[L_Toe2_02]
14 342.235809 -0.000477 0.000238 0.001180 -77.811127 0.001180 342.235809
15 342.235809 -0.000477 0.000238 0.001180 -77.801186 0.001180 342.235809
16 342.235809 -0.000477 0.000238 0.001180 -77.791237 0.001180 342.235809
[L_Toe2_03]
14 420.210846 -0.000715 0.000000 -179.996750 76.858932 -179.993225 420.210846
15 420.210846 -0.000715 0.000000 -179.996780 76.753387 -179.993256 420.210846
16 420.210846 -0.000715 0.000000 -179.996826 76.647766 -179.993301 420.210846
[L_Toe3_02]
14 329.270111 0.000954 0.000000 0.001176 -83.242859 0.001176 329.270111
15 329.270111 0.000954 0.000000 0.001176 -83.074623 0.001176 329.270111
16 329.270111 0.000954 0.000000 0.001176 -82.906380 0.001176 329.270111
[L_Toe3_03]
14 439.137451 -0.001907 0.000954 179.991043 64.742767 179.998215 439.137451
15 439.137451 -0.001907 0.000954 179.990982 65.070938 179.998154 439.137451
16 439.137451 -0.001907 0.000954 179.990784 65.964882 179.997940 439.137451
[planeLockWeightLeft]
14 1000.000488 -0.000035 -0.000100 -0.011826 -0.004376 0.005620 1000.000488
15 1000.000366 -0.000047 -0.000130 -0.011826 -0.004376 0.005620 1000.000366
16 1000.000366 -0.000059 -0.000160 -0.011826 -0.004376 0.005620 1000.000366
[R_Leg01]
14 761.455627 -0.001907 -0.000358 125.561119 -44.893944 44.972679 761.455688
15 761.455627 -0.001907 -0.000358 117.663345 -47.564484 48.909576 761.455688
16 761.455627 -0.001907 -0.000358 109.555023 -44.084183 57.619102 761.455688
[R_Leg02]
14 1441.140625 0.000000 -0.000238 -0.810431 0.126444 -139.778381 1441.140625
15 1441.140625 0.000000 -0.000238 -0.571986 0.100668 -135.118225 1441.140625
16 1441.140625 0.000000 -0.000238 -0.269579 0.077119 -123.853294 1441.140625
[R_Leg03]
14 1686.963989 0.000954 0.001431 -0.006037 0.002744 108.307487 1686.963989
15 1686.963989 0.000954 0.001431 -0.014522 0.005518 105.595192 1686.963989
16 1686.963989 0.000954 0.001431 -0.021544 0.006147 103.890381 1686.963989
[R_Foot]
14 3041.560059 -30.531288 -11.204481 -4.804107 -26.681629 69.035133 3041.734131
15 3041.560059 -30.531288 -11.204481 0.450514 -22.068531 69.281944 3041.734131
16 3041.560059 -30.531288 -11.204481 3.822895 -20.178246 68.433022 3041.734131
[planeAlignerRight]
14 -97.373978 -671.816162 -306.213287 -36.875378 -75.345795 -61.943138 744.704834
15 -73.409447 -683.833801 -292.135010 -36.797424 -77.992554 -60.526707 747.235168
16 -57.057827 -631.712524 -173.587708 -37.099861 -80.638718 -58.737072 657.608521
[R_Toe1_01]
14 -188.383347 -224.864899 21.052242 77.298027 2.805361 -166.352463 294.101532
15 -188.383347 -224.864899 21.052242 79.310112 4.418590 -165.186432 294.101532
16 -188.383347 -224.864899 21.052242 82.142776 0.973625 -168.477844 294.101532
[R_Toe2_01]
14 200.637817 -220.002121 -148.787384 -101.431221 27.568714 -61.516304 332.857574
15 200.637817 -220.002121 -148.787384 -102.775116 26.241644 -60.587692 332.857574
16 200.637817 -220.002121 -148.787384 -100.778458 21.971485 -54.014545 332.857574
[R_Toe3_01]
14 188.606735 -220.092957 191.126343 -70.954330 -4.890157 -71.662773 347.192566
15 188.606735 -220.092957 191.126343 -71.601227 -4.555697 -68.141945 347.192566
16 188.606735 -220.092957 191.126343 -70.972794 -10.645745 -61.084724 347.192566
[planeLockWeightRight]
14 0.000089 0.000000 -0.000000 -0.011823 -0.004379 -0.000027 0.000089
15 499.999359 0.000000 -0.000205 -0.011823 -0.004379 -0.000027 499.999390
16 999.998840 0.000000 -0.000410 -0.011823 -0.004379 -0.000027 999.998901
[R_Toe1_02]
14 413.762085 0.000477 -0.000119 0.000006 -25.434675 -0.000005 413.762085
15 413.762085 0.000477 -0.000119 0.000006 -25.434675 -0.000005 413.762085
16 413.762085 0.000477 -0.000119 0.000006 -25.434675 -0.000005 413.762085
[R_Toe1_03]
14 464.317810 0.000000 0.001088 0.006460 69.064217 0.006460 464.317810
15 464.317810 0.000000 0.001088 0.006888 70.378174 0.006888 464.317810
16 464.317810 0.000000 0.001088 0.009451 75.733223 0.009451 464.317810
[R_Toe2_02]
14 342.234741 -0.000954 0.000238 0.001209 -62.099430 0.001209 342.234741
15 342.234741 -0.000954 0.000238 0.001207 -63.060154 0.001207 342.234741
16 342.234741 -0.000954 0.000238 0.001187 -72.524605 0.001187 342.234741
[R_Toe2_03]
14 420.210846 0.000715 -0.000268 -0.004370 64.216507 -0.000782 420.210846
15 420.210846 0.000715 -0.000268 -0.004536 65.858765 -0.000961 420.210846
16 420.210846 0.000715 -0.000268 0.032341 85.840660 0.032341 420.210846
[R_Toe3_02]
14 329.270355 -0.000477 -0.000954 0.001186 -73.317886 0.001186 329.270355
15 329.270355 -0.000477 -0.000954 0.001183 -75.316116 0.001183 329.270355
16 329.270355 -0.000477 -0.000954 0.001179 -78.678101 0.001179 329.270355
[R_Toe3_03]
14 439.137939 0.000238 0.001431 0.014188 80.510551 0.014188 439.137939
15 439.137939 0.000238 0.001431 -0.015913 85.348648 -0.012413 439.137939
16 439.137939 0.000238 0.001431 -179.988556 85.006012 -179.985062 439.137939
[Rear_Leg02]
14 1162.777710 -0.029802 0.005960 0.118312 -24.222336 -69.413368 1162.777710
15 1162.777710 -0.029802 0.005960 -0.354584 -25.962505 -64.087563 1162.777710
16 1162.777710 -0.029802 0.005960 -1.414780 -27.477852 -57.926765 1162.777710
[Rear_Leg03]
14 607.192505 -0.013351 -0.073195 0.006544 -0.001886 60.373463 607.192505
15 607.192505 -0.013351 -0.073195 0.006550 -0.001864 59.973358 607.192505
16 607.192505 -0.013351 -0.073195 0.006564 -0.001815 59.130062 607.192505
[Rear_Leg04]
14 995.874512 -0.020504 -0.011921 -0.039446 -0.017762 50.788551 995.874573
15 995.874512 -0.020504 -0.011921 -0.039331 -0.018016 50.050606 995.874573
16 995.874512 -0.020504 -0.011921 -0.039095 -0.018523 48.570427 995.874573
[Rear_Foot]
14 3096.176270 -0.067472 -0.041425 -122.407867 62.625050 54.354656 3096.176270
15 3096.176270 -0.067472 -0.041425 -118.675438 61.621517 56.756409 3096.176270
16 3096.176270 -0.067472 -0.041425 -115.152046 60.548946 58.942970 3096.176270
[planeAlignerCenter]
14 48.677410 -39.502262 -736.540771 12.240769 -0.001473 179.998184 739.203796
15 61.445488 -29.895639 -763.850891 12.240772 -0.001473 179.998184 766.901184
16 66.554977 -18.585228 -776.389404 12.240772 -0.001473 179.998184 779.458496
[Rear_Toe1_01]
14 0.653352 83.966492 -371.173737 -1.448064 38.447140 87.434036 380.553192
15 0.653352 83.966492 -371.173737 -1.976574 40.703850 86.606995 380.553192
16 0.653352 83.966492 -371.173737 -2.184779 41.829906 86.277000 380.553192
[Rear_Toe2_01]
14 178.200760 -294.826019 -362.060547 -3.671317 31.557674 -63.219727 499.765686
15 178.200760 -294.826019 -362.060547 -2.878579 32.924450 -62.098278 499.765686
16 178.200760 -294.826019 -362.060547 -2.296934 33.733582 -61.360420 499.765686
[Rear_Toe3_01]
14 -153.359680 -308.780914 -362.060852 4.391266 31.383917 -109.286674 499.952881
15 -153.359680 -308.780914 -362.060852 4.530400 32.999893 -108.762878 499.952881
16 -153.359680 -308.780914 -362.060852 4.584732 33.860107 -108.685219 499.952881
[planeLockWeightCenter]
14 1000.000244 0.000346 -0.000141 -0.011814 -0.004373 -0.000015 1000.000244
15 1000.000244 0.000326 -0.000147 -0.011814 -0.004373 -0.000015 1000.000244
16 1000.000244 0.000305 -0.000153 -0.011814 -0.004373 -0.000015 1000.000244
[Rear_Toe1_02]
14 379.707825 0.194073 0.000477 -0.000767 -33.624729 0.000838 379.707855
15 379.707825 0.194073 0.000477 -0.000767 -33.624729 0.000838 379.707855
16 379.707825 0.194073 0.000477 -0.000767 -33.624729 0.000838 379.707855
[Rear_Toe1_03]
14 500.129700 0.165701 0.000119 0.000400 63.314659 0.002199 500.129761
15 500.129700 0.165701 0.000119 -0.003855 57.138298 -0.000209 500.129761
16 500.129700 0.165701 0.000119 -0.000049 52.425613 0.007338 500.129761
[Rear_Toe2_02]
14 340.494507 0.000238 -0.000954 0.001203 -64.809105 0.001203 340.494507
15 340.494507 0.000238 -0.000954 0.001204 -64.358604 0.001204 340.494507
16 340.494507 0.000238 -0.000954 0.001202 -65.090469 0.001202 340.494507
[Rear_Toe2_03]
14 433.103577 0.000000 0.000238 0.004936 62.490486 0.004936 433.103546
15 433.103577 0.000000 0.000238 0.004829 61.866768 0.004829 433.103546
16 433.103577 0.000000 0.000238 0.005006 62.884270 0.005006 433.103546
[Rear_Toe3_02]
14 340.494141 -0.000358 -0.000477 0.003025 -67.839874 -0.001524 340.494171
15 340.494141 -0.000358 -0.000477 0.001194 -68.922180 0.001194 340.494171
16 340.494141 -0.000358 -0.000477 0.001191 -70.241028 0.001191 340.494171
[Rear_Toe3_03]
14 433.103577 0.001431 -0.000238 0.001230 66.791092 -0.001150 433.103546
15 433.103577 0.001431 -0.000238 0.003774 68.587883 0.002588 433.103546
16 433.103577 0.001431 -0.000238 0.006890 70.384224 0.006890 433.103546
[Back_Bone]
14 1312.175781 -701.934692 0.000954 -1.072546 0.895029 -84.730461 1488.125488
15 1312.175781 -701.934692 0.000954 -1.338114 0.980707 -84.649048 1488.125488
16 1312.175781 -701.934692 0.000954 -1.603561 1.066758 -84.568024 1488.125488
[Head]
14 1406.159424 809.709290 0.001431 -5.826128 5.091166 4.830588 1622.625488
15 1406.159424 809.709290 0.001431 -6.474057 5.630935 4.411645 1622.625488
16 1406.159424 809.709290 0.001431 -7.126608 6.165969 3.986156 1622.625488
[Motor_Bone]
14 1158.364380 -417.834747 0.000477 -1.283821 0.107337 -105.880653 1231.419434
15 1158.364380 -417.834747 0.000477 -1.484410 0.110806 -105.876442 1231.419434
16 1158.364380 -417.834747 0.000477 -1.685001 0.114290 -105.872276 1231.419434
[Ping_Mechanism]
14 1237.938477 -445.206909 -9.832716 0.000103 -0.000053 82.120995 1315.597778
15 1245.158691 -449.062500 -7.515452 0.000103 -0.000053 82.120995 1323.681885
16 1249.580811 -450.540955 -13.428002 0.000103 -0.000053 82.120995 1328.390015
[BN_LookIK]
14 193.241119 1380.371704 -0.002861 0.000000 89.965736 -31.038179 1393.832153
15 193.241119 1380.371704 -0.002861 0.000000 89.965736 -31.038179 1393.832153
16 193.241119 1380.371704 -0.002861 0.000000 89.965736 -31.038179 1393.832153
[bottomMouth]
14 -435.092926 615.759399 -0.000954 -0.000022 0.000016 73.527184 753.966492
15 -435.092926 615.759399 -0.000954 -0.000022 0.000016 73.527184 753.966492
16 -435.092926 615.759399 -0.000954 -0.000022 0.000016 73.527184 753.966492
[L_Mouth01]
14 554.440979 7.658243 838.222046 150.204178 23.759130 109.605339 1005.027161
15 554.440979 7.658243 838.222046 150.204178 23.759130 109.605339 1005.027161
16 554.440979 7.658243 838.222046 150.204178 23.759130 109.605339 1005.027161
[L_mouthFront]
14 551.629089 934.514771 339.150421 0.000081 2.804060 79.119301 1136.941284
15 551.629089 934.514771 339.150421 0.000081 2.804060 79.119301 1136.941284
16 551.629089 934.514771 339.150421 0.000081 2.804060 79.119301 1136.941284
[mouthGun]
14 55.332661 1627.420898 0.000000 0.000023 0.000009 -11.038128 1628.361328
15 55.332661 1627.420898 0.000000 0.000023 0.000009 -11.038128 1628.361328
16 55.332661 1627.420898 0.000000 0.000023 0.000009 -11.038128 1628.361328
[R_Mouth01]
14 554.442383 7.659197 -838.223938 29.795891 -23.759109 109.605331 1005.029541
15 554.442383 7.659197 -838.223938 29.795891 -23.759109 109.605331 1005.029541
16 554.442383 7.659197 -838.223938 29.795891 -23.759109 109.605331 1005.029541
[R_mouthFront]
14 551.629089 934.514282 -339.151367 0.000029 -2.803930 79.119133 1136.941162
15 551.629089 934.514282 -339.151367 0.000029 -2.803930 79.119133 1136.941162
16 551.629089 934.514282 -339.151367 0.000029 -2.803930 79.119133 1136.941162
[TopMouth]
14 461.269867 -56.106091 -0.008583 -0.000059 -0.000268 92.025169 464.669525
15 461.269867 -56.106091 -0.008583 -0.000059 -0.000268 92.025169 464.669525
16 461.269867 -56.106091 -0.008583 -0.000059 -0.000268 92.025169 464.669525
[weapon_bone]
14 -987.239868 1448.372803 0.001431 0.000000 89.965736 -31.038221 1752.833740
15 -987.239868 1448.372803 0.001431 0.000000 89.965736 -31.038221 1752.833740
16 -987.239868 1448.372803 0.001431 0.000000 89.965736 -31.038221 1752.833740
